<?xml version="1.0" encoding="UTF-8" standalone="no"?>
<svg
   xmlns:dc="http://purl.org/dc/elements/1.1/"
   xmlns:cc="http://creativecommons.org/ns#"
   xmlns:rdf="http://www.w3.org/1999/02/22-rdf-syntax-ns#"
   xmlns:svg="http://www.w3.org/2000/svg"
   xmlns="http://www.w3.org/2000/svg"
   xmlns:sodipodi="http://sodipodi.sourceforge.net/DTD/sodipodi-0.dtd"
   xmlns:inkscape="http://www.inkscape.org/namespaces/inkscape"
   version="1.1"
   id="Capa_1"
   x="0px"
   y="0px"
   viewBox="0 0 477.859 477.859"
   style="enable-background:new 0 0 477.859 477.859;"
   xml:space="preserve"
   sodipodi:docname="net-compact-symbolic.svg"
   inkscape:version="1.0.1 (3bc2e813f5, 2020-09-07)"><metadata
   id="metadata43"><rdf:RDF><cc:Work
       rdf:about=""><dc:format>image/svg+xml</dc:format><dc:type
         rdf:resource="http://purl.org/dc/dcmitype/StillImage" /></cc:Work></rdf:RDF></metadata><defs
   id="defs41" /><sodipodi:namedview
   pagecolor="#ffffff"
   bordercolor="#666666"
   borderopacity="1"
   objecttolerance="10"
   gridtolerance="10"
   guidetolerance="10"
   inkscape:pageopacity="0"
   inkscape:pageshadow="2"
   inkscape:window-width="1600"
   inkscape:window-height="830"
   id="namedview39"
   showgrid="false"
   inkscape:zoom="1.0032633"
   inkscape:cx="181.04229"
   inkscape:cy="263.45251"
   inkscape:window-x="0"
   inkscape:window-y="0"
   inkscape:window-maximized="1"
   inkscape:current-layer="Capa_1" />
<g
   id="g6"
   transform="rotate(90,238.92962,238.93017)">
	<g
   id="g4">
		<path
   d="M 472.863,175.662 353.396,56.195 c -6.666,-6.664 -17.472,-6.662 -24.136,0.004 -3.199,3.2 -4.996,7.538 -4.997,12.063 v 51.2 H 204.796 c -9.426,0 -17.067,7.641 -17.067,17.067 0,9.426 7.641,17.067 17.067,17.067 H 341.33 c 9.426,0 17.067,-7.641 17.067,-17.067 V 109.46 l 78.268,78.268 -78.268,78.268 v -27.068 c 0,-9.426 -7.641,-17.067 -17.067,-17.067 H 153.596 v -51.2 c -0.002,-9.426 -7.645,-17.065 -17.07,-17.063 -4.524,10e-4 -8.863,1.798 -12.063,4.997 L 4.997,278.062 c -6.663,6.665 -6.663,17.468 0,24.132 l 119.467,119.467 c 3.2,3.201 7.54,5 12.066,5.001 2.243,0.007 4.466,-0.434 6.536,-1.297 6.376,-2.644 10.532,-8.867 10.53,-15.77 v -51.2 h 119.467 c 9.426,0 17.067,-7.641 17.067,-17.067 0,-9.426 -7.641,-17.067 -17.067,-17.067 H 136.53 c -9.426,0 -17.067,7.641 -17.067,17.067 v 27.068 L 41.195,290.128 119.463,211.86 v 27.068 c 0,9.426 7.641,17.067 17.067,17.067 h 187.733 v 51.2 c 0.002,9.426 7.645,17.065 17.07,17.063 4.524,-10e-4 8.863,-1.798 12.063,-4.997 L 472.863,199.794 c 6.662,-6.665 6.662,-17.468 0,-24.132 z"
   id="path2" />
	</g>
</g>
<g
   id="g8">
</g>
<g
   id="g10">
</g>
<g
   id="g12">
</g>
<g
   id="g14">
</g>
<g
   id="g16">
</g>
<g
   id="g18">
</g>
<g
   id="g20">
</g>
<g
   id="g22">
</g>
<g
   id="g24">
</g>
<g
   id="g26">
</g>
<g
   id="g28">
</g>
<g
   id="g30">
</g>
<g
   id="g32">
</g>
<g
   id="g34">
</g>
<g
   id="g36">
</g>
</svg>
