<?xml version="1.0" encoding="UTF-8" standalone="no"?>
<svg
   xmlns:dc="http://purl.org/dc/elements/1.1/"
   xmlns:cc="http://creativecommons.org/ns#"
   xmlns:rdf="http://www.w3.org/1999/02/22-rdf-syntax-ns#"
   xmlns:svg="http://www.w3.org/2000/svg"
   xmlns="http://www.w3.org/2000/svg"
   xmlns:sodipodi="http://sodipodi.sourceforge.net/DTD/sodipodi-0.dtd"
   xmlns:inkscape="http://www.inkscape.org/namespaces/inkscape"
   version="1.1"
   id="Capa_1"
   x="0px"
   y="0px"
   viewBox="0 0 471.2 471.2"
   style="enable-background:new 0 0 471.2 471.2;"
   xml:space="preserve"
   sodipodi:docname="net-down-symbolic.svg"
   inkscape:version="1.0.1 (3bc2e813f5, 2020-09-07)"><metadata
   id="metadata45"><rdf:RDF><cc:Work
       rdf:about=""><dc:format>image/svg+xml</dc:format><dc:type
         rdf:resource="http://purl.org/dc/dcmitype/StillImage" /></cc:Work></rdf:RDF></metadata><defs
   id="defs43" /><sodipodi:namedview
   pagecolor="#ffffff"
   bordercolor="#666666"
   borderopacity="1"
   objecttolerance="10"
   gridtolerance="10"
   guidetolerance="10"
   inkscape:pageopacity="0"
   inkscape:pageshadow="2"
   inkscape:window-width="1600"
   inkscape:window-height="830"
   id="namedview41"
   showgrid="false"
   inkscape:zoom="1.0174414"
   inkscape:cx="56.347736"
   inkscape:cy="223.79724"
   inkscape:window-x="0"
   inkscape:window-y="0"
   inkscape:window-maximized="1"
   inkscape:current-layer="g6" />
<g
   id="g8">
	<g
   id="g6">
		
		
	<path
   d="m 222.76443,456.65699 c 3.53148,3.53148 8.2854,5.43304 12.90348,5.43304 4.61808,0 9.372,-1.76574 12.90347,-5.43304 L 365.11018,340.1182 c 7.1988,-7.19879 7.1988,-18.74401 0,-25.9428 -7.19878,-7.19877 -18.744,-7.19877 -25.94278,0 l -85.16297,85.2988 V 27.446503 c 0,-10.18695 -8.14956,-18.3365205 -18.33652,-18.3365205 -10.18696,0 -18.33652,8.1495705 -18.33652,18.3365205 V 399.4742 l -85.29878,-85.2988 c -7.19879,-7.19877 -18.74402,-7.19877 -25.9428,0 -7.198776,7.19879 -7.198776,18.74401 0,25.9428 z"
   id="path4"
   style="stroke-width:1.35826" /></g>
</g>
<g
   id="g10">
</g>
<g
   id="g12">
</g>
<g
   id="g14">
</g>
<g
   id="g16">
</g>
<g
   id="g18">
</g>
<g
   id="g20">
</g>
<g
   id="g22">
</g>
<g
   id="g24">
</g>
<g
   id="g26">
</g>
<g
   id="g28">
</g>
<g
   id="g30">
</g>
<g
   id="g32">
</g>
<g
   id="g34">
</g>
<g
   id="g36">
</g>
<g
   id="g38">
</g>
</svg>
