<?xml version="1.0" encoding="UTF-8" standalone="no"?>
<svg
   xmlns:dc="http://purl.org/dc/elements/1.1/"
   xmlns:cc="http://creativecommons.org/ns#"
   xmlns:rdf="http://www.w3.org/1999/02/22-rdf-syntax-ns#"
   xmlns:svg="http://www.w3.org/2000/svg"
   xmlns="http://www.w3.org/2000/svg"
   xmlns:sodipodi="http://sodipodi.sourceforge.net/DTD/sodipodi-0.dtd"
   xmlns:inkscape="http://www.inkscape.org/namespaces/inkscape"
   height="426pt"
   viewBox="-42 0 426 426.66667"
   width="426pt"
   version="1.1"
   id="svg4"
   sodipodi:docname="net-sigma-symbolic.svg"
   inkscape:version="1.0.1 (3bc2e813f5, 2020-09-07)">
  <metadata
     id="metadata10">
    <rdf:RDF>
      <cc:Work
         rdf:about="">
        <dc:format>image/svg+xml</dc:format>
        <dc:type
           rdf:resource="http://purl.org/dc/dcmitype/StillImage" />
      </cc:Work>
    </rdf:RDF>
  </metadata>
  <defs
     id="defs8" />
  <sodipodi:namedview
     pagecolor="#ffffff"
     bordercolor="#666666"
     borderopacity="1"
     objecttolerance="10"
     gridtolerance="10"
     guidetolerance="10"
     inkscape:pageopacity="0"
     inkscape:pageshadow="2"
     inkscape:window-width="1600"
     inkscape:window-height="830"
     id="namedview6"
     showgrid="false"
     inkscape:zoom="0.84404647"
     inkscape:cx="275.32473"
     inkscape:cy="275.32473"
     inkscape:window-x="0"
     inkscape:window-y="0"
     inkscape:window-maximized="1"
     inkscape:current-layer="svg4" />
  <path
     d="m320.34375 426.667969h-298.664062c-8.277344 0-15.808594-4.800781-19.328126-12.289063-3.519531-7.488281-2.367187-16.339844 2.941407-22.699218l148.609375-178.347657-148.609375-178.324219c-5.308594-6.378906-6.441407-15.230468-2.941407-22.71875 3.519532-7.488281 11.050782-12.289062 19.328126-12.289062h298.664062c11.777344 0 21.335938 9.535156 21.335938 21.332031v64c0 11.796875-9.558594 21.335938-21.335938 21.335938-11.773438 0-21.332031-9.539063-21.332031-21.335938v-42.664062h-231.785157l130.835938 156.992187c6.59375 7.914063 6.59375 19.410156 0 27.328125l-130.835938 157.011719h231.785157v-42.667969c0-11.796875 9.558593-21.332031 21.332031-21.332031 11.777344 0 21.335938 9.535156 21.335938 21.332031v64c0 11.796875-9.558594 21.335938-21.335938 21.335938zm0 0"
     id="path2" />
</svg>
