<?xml version="1.0" encoding="UTF-8" standalone="no"?>
<svg
   xmlns:dc="http://purl.org/dc/elements/1.1/"
   xmlns:cc="http://creativecommons.org/ns#"
   xmlns:rdf="http://www.w3.org/1999/02/22-rdf-syntax-ns#"
   xmlns:svg="http://www.w3.org/2000/svg"
   xmlns="http://www.w3.org/2000/svg"
   xmlns:sodipodi="http://sodipodi.sourceforge.net/DTD/sodipodi-0.dtd"
   xmlns:inkscape="http://www.inkscape.org/namespaces/inkscape"
   id="Capa_1"
   enable-background="new 0 0 512 512"
   height="512"
   viewBox="0 0 512 512"
   width="512"
   version="1.1"
   sodipodi:docname="ram-symbolic.svg"
   inkscape:version="1.0.1 (3bc2e813f5, 2020-09-07)">
  <metadata
     id="metadata15">
    <rdf:RDF>
      <cc:Work
         rdf:about="">
        <dc:format>image/svg+xml</dc:format>
        <dc:type
           rdf:resource="http://purl.org/dc/dcmitype/StillImage" />
      </cc:Work>
    </rdf:RDF>
  </metadata>
  <defs
     id="defs13" />
  <sodipodi:namedview
     pagecolor="#ffffff"
     bordercolor="#666666"
     borderopacity="1"
     objecttolerance="10"
     gridtolerance="10"
     guidetolerance="10"
     inkscape:pageopacity="0"
     inkscape:pageshadow="2"
     inkscape:window-width="1600"
     inkscape:window-height="830"
     id="namedview11"
     showgrid="false"
     inkscape:zoom="1.3242188"
     inkscape:cx="256"
     inkscape:cy="256"
     inkscape:window-x="0"
     inkscape:window-y="34"
     inkscape:window-maximized="1"
     inkscape:current-layer="Capa_1" />
  <g
     id="g8">
    <path
       d="m 0,172.211 4.395,4.395 c 10.693,10.693 10.693,28.096 0,38.789 L 0,219.789 V 331 H 512 V 219.789 l -4.395,-4.395 c -10.693,-10.693 -10.693,-28.096 0,-38.789 L 512,172.21 V 121 H 0 Z M 391,181 h 30 v 90 h -30 z m -60,0 h 30 v 90 h -30 z m -60,0 h 30 v 90 h -30 z m -60,0 h 30 v 90 h -30 z m -60,0 h 30 v 90 h -30 z m -60,0 h 30 v 90 H 91 Z"
       id="path2" />
    <path
       d="m 30,361 h 151 v 30 H 30 Z"
       id="path4" />
    <path
       d="m 211,361 h 271 v 30 H 211 Z"
       id="path6" />
  </g>
</svg>
