<?xml version="1.0" encoding="UTF-8" standalone="no"?>
<svg
   xmlns:dc="http://purl.org/dc/elements/1.1/"
   xmlns:cc="http://creativecommons.org/ns#"
   xmlns:rdf="http://www.w3.org/1999/02/22-rdf-syntax-ns#"
   xmlns:svg="http://www.w3.org/2000/svg"
   xmlns="http://www.w3.org/2000/svg"
   xmlns:sodipodi="http://sodipodi.sourceforge.net/DTD/sodipodi-0.dtd"
   xmlns:inkscape="http://www.inkscape.org/namespaces/inkscape"
   height="512pt"
   viewBox="0 0 512 512"
   width="512pt"
   version="1.1"
   id="svg66"
   sodipodi:docname="uptime-symbolic.svg"
   inkscape:version="1.0.1 (3bc2e813f5, 2020-09-07)">
  <metadata
     id="metadata72">
    <rdf:RDF>
      <cc:Work
         rdf:about="">
        <dc:format>image/svg+xml</dc:format>
        <dc:type
           rdf:resource="http://purl.org/dc/dcmitype/StillImage" />
      </cc:Work>
    </rdf:RDF>
  </metadata>
  <defs
     id="defs70" />
  <sodipodi:namedview
     pagecolor="#ffffff"
     bordercolor="#666666"
     borderopacity="1"
     objecttolerance="10"
     gridtolerance="10"
     guidetolerance="10"
     inkscape:pageopacity="0"
     inkscape:pageshadow="2"
     inkscape:window-width="1600"
     inkscape:window-height="830"
     id="namedview68"
     showgrid="false"
     inkscape:zoom="0.99316406"
     inkscape:cx="341.33333"
     inkscape:cy="341.33333"
     inkscape:window-x="0"
     inkscape:window-y="34"
     inkscape:window-maximized="1"
     inkscape:current-layer="svg66" />
  <path
     d="m64 432h16v16h-16zm0 0"
     id="path2" />
  <path
     d="m96 432h16v16h-16zm0 0"
     id="path4" />
  <path
     d="m128 432h16v16h-16zm0 0"
     id="path6" />
  <path
     d="m32 432h16v16h-16zm0 0"
     id="path8" />
  <path
     d="m64 368h16v16h-16zm0 0"
     id="path10" />
  <path
     d="m96 368h16v16h-16zm0 0"
     id="path12" />
  <path
     d="m128 368h16v16h-16zm0 0"
     id="path14" />
  <path
     d="m32 368h16v16h-16zm0 0"
     id="path16" />
  <path
     d="m64 304h16v16h-16zm0 0"
     id="path18" />
  <path
     d="m32 304h16v16h-16zm0 0"
     id="path20" />
  <path
     d="m96 304h16v16h-16zm0 0"
     id="path22" />
  <path
     d="m64 240h16v16h-16zm0 0"
     id="path24" />
  <path
     d="m32 240h16v16h-16zm0 0"
     id="path26" />
  <path
     d="m64 112h16v16h-16zm0 0"
     id="path28" />
  <path
     d="m32 112h16v16h-16zm0 0"
     id="path30" />
  <path
     d="m96 112h16v16h-16zm0 0"
     id="path32" />
  <path
     d="m128 112h16v16h-16zm0 0"
     id="path34" />
  <path
     d="m64 176h16v16h-16zm0 0"
     id="path36" />
  <path
     d="m32 176h16v16h-16zm0 0"
     id="path38" />
  <path
     d="m96 176h16v16h-16zm0 0"
     id="path40" />
  <path
     d="m272 128h16v16h-16zm0 0"
     id="path42" />
  <path
     d="m272 368h16v16h-16zm0 0"
     id="path44" />
  <path
     d="m152 248h16v16h-16zm0 0"
     id="path46" />
  <path
     d="m183.839844 171.148438 11.3125-11.3125 11.3125 11.3125-11.3125 11.316406zm0 0"
     id="path48" />
  <path
     d="m353.546875 340.851562 11.316406-11.3125 11.3125 11.3125-11.3125 11.316407zm0 0"
     id="path50" />
  <path
     d="m183.835938 340.851562 11.316406-11.3125 11.3125 11.3125-11.3125 11.3125zm0 0"
     id="path52" />
  <path
     d="M 432,130.39844 352.28906,240 H 392 v 113.34375 c -39.34766,45.67969 -102.52734,62.82031 -159.56641,43.29297 -57.03906,-19.52734 -96.45703,-71.79297 -99.55468,-132.00391 -3.09766,-60.20703 30.75,-116.24218 85.48046,-141.51953 54.73438,-25.277342 119.33985,-14.71094 163.16797,26.6875 l -20,27.4961 12.94532,9.40625 L 432,107.60156 489.52734,186.70313 502.47266,177.29688 432,80.398438 391,136.80078 C 362.84766,110.72656 326.33594,95.519531 288,93.894531 V -4.4703482e-8 H 0 V 480 h 288 v -59.72656 c 38.77344,-1.75 75.64844,-17.26953 104,-43.77735 V 400 h 80 V 240 h 39.71094 z M 16,48 H 32 V 32 H 16 V 16 h 256 v 16 h -16 v 16 h 16 V 80 H 16 Z m 0,48 h 237.12109 c -16.6914,2.804688 -32.84375,8.20313 -47.86328,16 H 160 v 16 h 20.39062 c -6.3125,4.89453 -12.26171,10.24219 -17.79687,16 H 16 Z m 0,64 h 133.15234 c -10.84375,14.51172 -19.17968,30.73828 -24.67187,48 H 16 Z m 0,64 h 104.30469 c -2.23047,10.84375 -3.35157,21.88672 -3.34375,32.96094 0,5.07812 0.30468,10.07812 0.80078,15.03906 H 16 Z m 0,64 h 104 c 3.23828,16.82031 9.125,33.01953 17.43359,48 H 16 Z m 0,64 h 131.67969 c 14.14843,19.77734 32.50781,36.16797 53.7539,48 H 16 Z M 272,464 H 16 v -48 h 224 v -0.80078 c 10.48047,2.67578 21.19922,4.30078 32,4.84766 z M 456,224 V 384 H 408 V 224 H 383.71094 L 432,157.60156 480.28906,224 Z m 0,0"
     id="path54" />
  <path
     d="m272 160v99.3125l46.34375 46.34375 11.3125-11.3125-41.65625-41.65625v-92.6875zm0 0"
     id="path56" />
  <path
     d="m16 496h48v16h-48zm0 0"
     id="path58" />
  <path
     d="m224 496h48v16h-48zm0 0"
     id="path60" />
  <path
     d="m160 432h96v16h-96zm0 0"
     id="path62" />
  <path
     d="m48 32h192v16h-192zm0 0"
     id="path64" />
</svg>
